# xmcd
#
# Track frame offsets: 
#        150
#        8671
#        25050
#        37566
#        54582
#        71155
#        84009
#        102378
#        112822
#        124703
#        140578
#        150384
#
# Disc length: 2294 seconds
#
# Revision: 0
# Processed by: cddbd v1.5.2PL0 Copyright (c) Steve Scherf et al.
# Submitted via: ExactAudioCopy v0.99pb5
#
DISCID=8408f40c
DTITLE=Allister - Countdown To Nowhere
DYEAR=2010
DGENRE=Pop Punk
TTITLE0=Failure
TTITLE1=Run Away
TTITLE2=Dance With Me
TTITLE3=All We Needed
TTITLE4=Breathe For You
TTITLE5=Make It Work
TTITLE6=Can't Let Go
TTITLE7=Yearbook
TTITLE8=Free
TTITLE9=Start Somewhere
TTITLE10=Diamond Ring
TTITLE11=Tokyo Sunrise
EXTD=
EXTT0=
EXTT1=
EXTT2=
EXTT3=
EXTT4=
EXTT5=
EXTT6=
EXTT7=
EXTT8=
EXTT9=
EXTT10=
EXTT11=
PLAYORDER=
